<svg width="33" height="33" viewBox="0 0 33 33" fill="none" xmlns="http://www.w3.org/2000/svg">
<g id="credit-card 1">
<path id="credit card" d="M29.3887 10.1484C29.3887 9.35279 29.0726 8.58973 28.51 8.02712C27.9474 7.46451 27.1843 7.14844 26.3887 7.14844H6.38867C5.59302 7.14844 4.82996 7.46451 4.26735 8.02712C3.70474 8.58973 3.38867 9.35279 3.38867 10.1484V11.1484H29.3887V10.1484ZM3.38867 22.1484C3.38867 22.9441 3.70474 23.7071 4.26735 24.2698C4.82996 24.8324 5.59302 25.1484 6.38867 25.1484H26.3887C27.1843 25.1484 27.9474 24.8324 28.51 24.2698C29.0726 23.7071 29.3887 22.9441 29.3887 22.1484V13.1484H3.38867V22.1484Z" fill="black"/>
</g>
</svg>
