<svg width="33" height="23" viewBox="0 0 33 23" fill="none" xmlns="http://www.w3.org/2000/svg">
<path id="credit card" d="M32.4057 4.1135C32.4057 3.1229 32.0121 2.17286 31.3117 1.4724C30.6112 0.771935 29.6612 0.378418 28.6706 0.378418H3.77C2.77939 0.378418 1.82936 0.771935 1.12889 1.4724C0.428429 2.17286 0.0349121 3.1229 0.0349121 4.1135V5.35853H32.4057V4.1135ZM0.0349121 19.0538C0.0349121 20.0445 0.428429 20.9945 1.12889 21.695C1.82936 22.3954 2.77939 22.7889 3.77 22.7889H28.6706C29.6612 22.7889 30.6112 22.3954 31.3117 21.695C32.0121 20.9945 32.4057 20.0445 32.4057 19.0538V7.84859H0.0349121V19.0538Z" fill="black"/>
</svg>
